<?xml version="1.0" encoding="utf-8"?>
<svg xmlns="http://www.w3.org/2000/svg" xmlns:xlink="http://www.w3.org/1999/xlink">
    <symbol viewBox="0 0 34 34" id="gift" xmlns="http://www.w3.org/2000/svg">
        <path d="M2.833 21.25h12.75V34H9.917a7.083 7.083 0 01-7.084-7.083zM34 15.583a2.833 2.833 0 01-2.833 2.834h-12.75v-5.728c-.476.037-.95.061-1.417.061-.466 0-.94-.024-1.417-.06v5.727H2.833A2.833 2.833 0 010 15.583a5.667 5.667 0 015.667-5.666h2.462A7.28 7.28 0 015.667 4.25a1.417 1.417 0 112.833 0c0 3.715 3.359 5 5.913 5.441A13.2 13.2 0 0112.75 4.25a4.25 4.25 0 018.5 0 13.2 13.2 0 01-1.663 5.441C22.14 9.251 25.5 7.964 25.5 4.25a1.417 1.417 0 012.833 0 7.28 7.28 0 01-2.462 5.667h2.462A5.667 5.667 0 0134 15.583M15.583 4.25c.171 1.506.654 2.96 1.417 4.268a10.9 10.9 0 001.417-4.268 1.417 1.417 0 00-2.834 0M18.417 34h5.666a7.083 7.083 0 007.084-7.083V21.25h-12.75z"/>
    </symbol>

    <symbol viewBox="0 0 20 20" id="lock" xmlns="http://www.w3.org/2000/svg">
        <path d="M10 10.766a1.04 1.04 0 00-.52 1.94v1.156h1.038v-1.156a1.039 1.039 0 00-.518-1.94m0-5.043c-.874 0-1.585.711-1.585 1.585v1.688h3.17V7.308c0-.874-.71-1.585-1.585-1.585" fill="currentColor"/>
        <path d="M10 0C4.477 0 0 4.477 0 10s4.477 10 10 10 10-4.478 10-10S15.523 0 10 0m3.073 15.141H6.928a1.175 1.175 0 01-1.175-1.175v-3.795c0-.566.4-1.038.933-1.15V7.308A3.32 3.32 0 0110 3.994a3.32 3.32 0 013.314 3.314v1.713c.533.112.934.584.934 1.15v3.795c0 .65-.526 1.175-1.175 1.175" fill="currentColor"/>
    </symbol>

    <symbol viewBox="0 0 512 512" id="play-icon" xmlns="http://www.w3.org/2000/svg">
        <path d="M62 1c-7.1 1.5-15.1 6-20.6 11.5C32.8 21 27.7 33.5 26 50c-1.3 12.9-1.3 399.1 0 412 1.7 16.5 6.8 29 15.4 37.5 14.9 14.9 37.3 16.3 61.9 3.9 7.6-3.7 345.7-197.5 354.6-203.1 3.1-2 9-7 13.1-11.2 15.9-16.1 19.6-34 10.7-52.1-3.7-7.6-15.2-19.8-23.8-25.3-8.9-5.6-347-199.4-354.6-203.1C99.6 6.7 93.6 4.2 90 3 82.6.6 68.6-.4 62 1"/>
    </symbol>

    <symbol viewBox="0 0 18 18" id="like" xmlns="http://www.w3.org/2000/svg">
        <path d="M18 9A9 9 0 1 1 0 9a9 9 0 0 1 18 0" fill="url(#a)"/>
        <path d="M18 9A9 9 0 1 1 0 9a9 9 0 0 1 18 0" fill="url(#b)"/>
        <path d="M18 9A9 9 0 1 1 0 9a9 9 0 0 1 18 0" fill="url(#c)" fill-opacity=".5"/>
        <path d="M8.211 4.35a.785.785 0 0 1 .785-.785c.758 0 1.373.615 1.373 1.373v1.965a.114.114 0 0 0 .114.114h2.02a1.726 1.726 0 0 1 1.678 2.128l-.515 2.143a2.59 2.59 0 0 1-2.517 1.985H7.78a.647.647 0 0 1-.647-.647v-3.92c0-.469.11-.931.319-1.35l.321-.643a4.15 4.15 0 0 0 .438-1.857zM4.91 7.876a.863.863 0 0 0-.863.863v3.667a.863.863 0 0 0 .863.863h.863a.43.43 0 0 0 .431-.431v-4.53a.43.43 0 0 0-.431-.432z" fill="#fff"/>
    </symbol>

    <symbol viewBox="0 0 12 18" id="lock-2" xmlns="http://www.w3.org/2000/svg">
        <path d="M11.7083 9.32808C11.5138 9.10926 11.2778 9.00004 10.9999 9.00004H3.33325V5.25007C3.33325 4.42181 3.59372 3.71487 4.11459 3.1289C4.63549 2.54305 5.26392 2.25006 6.00009 2.25006C6.73619 2.25006 7.36472 2.54301 7.88541 3.1289C8.40632 3.71487 8.66679 4.42185 8.66679 5.25007C8.66679 5.45313 8.73272 5.62889 8.86454 5.77731C8.99665 5.92578 9.15296 6.00003 9.33327 6.00003H10.0003C10.1807 6.00003 10.3369 5.92578 10.469 5.77731C10.6006 5.62889 10.6668 5.45313 10.6668 5.25007C10.6668 3.8046 10.2102 2.5685 9.29707 1.54107C8.38384 0.513609 7.28478 0 6.00009 0C4.71529 0 3.61634 0.513609 2.70303 1.54103C1.78987 2.56833 1.33329 3.80456 1.33329 5.25003V9H0.999997C0.722305 9 0.486134 9.10947 0.291666 9.32804C0.0971976 9.54661 0 9.81238 0 10.1249V16.875C0 17.1877 0.0972341 17.4533 0.291666 17.672C0.486134 17.8906 0.722305 18 0.999997 18H10.9999C11.2778 18 11.514 17.8906 11.7083 17.672C11.9026 17.4533 12 17.1877 12 16.875V10.1249C12.0001 9.81242 11.9029 9.54694 11.7083 9.32808Z" fill="black"/>
    </symbol>

    <symbol viewBox="0 0 25 19" id="check" xmlns="http://www.w3.org/2000/svg">
        <path d="m1.095 11.934 6.234 6.128c.249.266.55.48.886.63a2.78 2.78 0 0 0 3.057-.543L24.133 5.518c.51-.504.796-1.185.796-1.894 0-.71-.286-1.39-.796-1.894a2.76 2.76 0 0 0-1.928-.783 2.76 2.76 0 0 0-1.929.783L9.346 12.464 4.954 8.147a2.76 2.76 0 0 0-1.93-.782 2.77 2.77 0 0 0-1.93.782 2.66 2.66 0 0 0-.796 1.894c0 .71.286 1.391.797 1.894" fill="currentColor"/>
    </symbol>

</svg>